<mxfile host="app.diagrams.net" agent="Mozilla/5.0 (Windows NT 10.0; Win64; x64) AppleWebKit/537.36 (KHTML, like Gecko) Chrome/131.0.0.0 Safari/537.36" version="25.0.3">
  <diagram name="Страница — 1" id="2OBPxP7PNkvGcftw9HF-">
    <mxGraphModel dx="989" dy="509" grid="1" gridSize="10" guides="1" tooltips="1" connect="1" arrows="1" fold="1" page="1" pageScale="1" pageWidth="827" pageHeight="1169" math="0" shadow="0">
      <root>
        <mxCell id="0" />
        <mxCell id="1" parent="0" />
        <mxCell id="ThtNLBCdlqUOlmanm6_U-4" style="rounded=0;orthogonalLoop=1;jettySize=auto;html=1;exitX=1;exitY=0.3333333333333333;exitDx=0;exitDy=0;exitPerimeter=0;entryX=0;entryY=0.5;entryDx=0;entryDy=0;endArrow=none;endFill=0;" edge="1" parent="1" source="ThtNLBCdlqUOlmanm6_U-1" target="ThtNLBCdlqUOlmanm6_U-2">
          <mxGeometry relative="1" as="geometry" />
        </mxCell>
        <mxCell id="ThtNLBCdlqUOlmanm6_U-1" value="User" style="shape=umlActor;verticalLabelPosition=bottom;verticalAlign=top;html=1;outlineConnect=0;" vertex="1" parent="1">
          <mxGeometry x="330" y="350" width="30" height="60" as="geometry" />
        </mxCell>
        <mxCell id="ThtNLBCdlqUOlmanm6_U-2" value="&lt;font style=&quot;font-size: 9px;&quot;&gt;authorization&lt;/font&gt;" style="ellipse;whiteSpace=wrap;html=1;" vertex="1" parent="1">
          <mxGeometry x="460" y="240" width="80" height="40" as="geometry" />
        </mxCell>
        <mxCell id="ThtNLBCdlqUOlmanm6_U-7" value="&lt;font style=&quot;font-size: 9px;&quot;&gt;usename&lt;/font&gt;" style="ellipse;whiteSpace=wrap;html=1;" vertex="1" parent="1">
          <mxGeometry x="590" y="190" width="80" height="40" as="geometry" />
        </mxCell>
        <mxCell id="ThtNLBCdlqUOlmanm6_U-8" value="&lt;font style=&quot;font-size: 9px;&quot;&gt;email&lt;/font&gt;" style="ellipse;whiteSpace=wrap;html=1;" vertex="1" parent="1">
          <mxGeometry x="610" y="240" width="80" height="40" as="geometry" />
        </mxCell>
        <mxCell id="ThtNLBCdlqUOlmanm6_U-11" value="&lt;font style=&quot;font-size: 9px;&quot;&gt;registration&lt;/font&gt;" style="ellipse;whiteSpace=wrap;html=1;" vertex="1" parent="1">
          <mxGeometry x="460" y="150" width="80" height="40" as="geometry" />
        </mxCell>
        <mxCell id="ThtNLBCdlqUOlmanm6_U-12" style="rounded=0;orthogonalLoop=1;jettySize=auto;html=1;exitX=1;exitY=0.3333333333333333;exitDx=0;exitDy=0;exitPerimeter=0;entryX=0;entryY=0.5;entryDx=0;entryDy=0;endArrow=none;endFill=0;" edge="1" parent="1" source="ThtNLBCdlqUOlmanm6_U-1" target="ThtNLBCdlqUOlmanm6_U-11">
          <mxGeometry relative="1" as="geometry">
            <mxPoint x="370" y="380" as="sourcePoint" />
            <mxPoint x="470" y="270" as="targetPoint" />
          </mxGeometry>
        </mxCell>
        <mxCell id="ThtNLBCdlqUOlmanm6_U-13" value="&lt;font size=&quot;1&quot;&gt;quest&lt;/font&gt;" style="ellipse;whiteSpace=wrap;html=1;" vertex="1" parent="1">
          <mxGeometry x="590" y="290" width="80" height="40" as="geometry" />
        </mxCell>
        <mxCell id="ThtNLBCdlqUOlmanm6_U-18" value="" style="endArrow=block;dashed=1;endFill=0;endSize=8;html=1;rounded=0;entryX=1;entryY=0.5;entryDx=0;entryDy=0;exitX=0;exitY=0.5;exitDx=0;exitDy=0;jumpSize=6;strokeWidth=1;startSize=6;" edge="1" parent="1" source="ThtNLBCdlqUOlmanm6_U-7" target="ThtNLBCdlqUOlmanm6_U-2">
          <mxGeometry width="160" relative="1" as="geometry">
            <mxPoint x="570" y="270" as="sourcePoint" />
            <mxPoint x="730" y="270" as="targetPoint" />
          </mxGeometry>
        </mxCell>
        <mxCell id="ThtNLBCdlqUOlmanm6_U-20" value="&lt;font style=&quot;font-size: 9px;&quot;&gt;extend&lt;/font&gt;" style="edgeLabel;html=1;align=center;verticalAlign=middle;resizable=0;points=[];" vertex="1" connectable="0" parent="ThtNLBCdlqUOlmanm6_U-18">
          <mxGeometry x="-0.1724" y="-1" relative="1" as="geometry">
            <mxPoint y="1" as="offset" />
          </mxGeometry>
        </mxCell>
        <mxCell id="ThtNLBCdlqUOlmanm6_U-21" value="" style="endArrow=block;dashed=1;endFill=0;endSize=8;html=1;rounded=0;entryX=1;entryY=0.5;entryDx=0;entryDy=0;exitX=0;exitY=0.5;exitDx=0;exitDy=0;jumpSize=6;strokeWidth=1;startSize=6;" edge="1" parent="1" source="ThtNLBCdlqUOlmanm6_U-8" target="ThtNLBCdlqUOlmanm6_U-2">
          <mxGeometry width="160" relative="1" as="geometry">
            <mxPoint x="590" y="290" as="sourcePoint" />
            <mxPoint x="540" y="340" as="targetPoint" />
          </mxGeometry>
        </mxCell>
        <mxCell id="ThtNLBCdlqUOlmanm6_U-22" value="&lt;font style=&quot;font-size: 9px;&quot;&gt;extend&lt;/font&gt;" style="edgeLabel;html=1;align=center;verticalAlign=middle;resizable=0;points=[];" vertex="1" connectable="0" parent="ThtNLBCdlqUOlmanm6_U-21">
          <mxGeometry x="-0.1724" y="-1" relative="1" as="geometry">
            <mxPoint y="1" as="offset" />
          </mxGeometry>
        </mxCell>
        <mxCell id="ThtNLBCdlqUOlmanm6_U-24" value="" style="endArrow=block;dashed=1;endFill=0;endSize=8;html=1;rounded=0;entryX=1;entryY=0.5;entryDx=0;entryDy=0;exitX=0;exitY=0.5;exitDx=0;exitDy=0;jumpSize=6;strokeWidth=1;startSize=6;" edge="1" parent="1" source="ThtNLBCdlqUOlmanm6_U-13" target="ThtNLBCdlqUOlmanm6_U-2">
          <mxGeometry width="160" relative="1" as="geometry">
            <mxPoint x="600" y="220" as="sourcePoint" />
            <mxPoint x="550" y="270" as="targetPoint" />
          </mxGeometry>
        </mxCell>
        <mxCell id="ThtNLBCdlqUOlmanm6_U-25" value="&lt;font style=&quot;font-size: 9px;&quot;&gt;extend&lt;/font&gt;" style="edgeLabel;html=1;align=center;verticalAlign=middle;resizable=0;points=[];" vertex="1" connectable="0" parent="ThtNLBCdlqUOlmanm6_U-24">
          <mxGeometry x="-0.1724" y="-1" relative="1" as="geometry">
            <mxPoint y="1" as="offset" />
          </mxGeometry>
        </mxCell>
      </root>
    </mxGraphModel>
  </diagram>
</mxfile>
